<svg xmlns="http://www.w3.org/2000/svg" xml:space="preserve" width="20mm" height="20mm" version="1.1" style="shape-rendering:geometricPrecision; text-rendering:geometricPrecision; image-rendering:optimizeQuality; fill-rule:evenodd; clip-rule:evenodd"
viewBox="0 0 2000 2000"
 xmlns:xlink="http://www.w3.org/1999/xlink">
 <defs>
  <!-- <style type="text/css">
  .colour {fill:white}
  </style> -->
 </defs>
 <g id="Layer_x0020_2">
  <metadata id="CorelCorpID_0Corel-Layer"/>
  <g id="_2331443763728">
   <path class="colour" d="M1576 1686l-703 0c-106,0 -203,-85 -203,-186 0,-90 15,-155 101,-204 81,-45 170,9 178,-84 19,-222 228,-314 393,-232 71,35 117,91 140,164 21,69 -8,64 34,127 86,0 128,4 176,45 162,138 50,370 -116,370zm-703 -491c-53,0 -75,4 -113,22 -300,142 -169,545 96,545l737 0c119,0 254,-135 254,-254l0 -59c0,-115 -119,-254 -280,-254 0,-112 -68,-203 -152,-263 -217,-155 -542,16 -542,263z"/>
   <path class="colour" d="M644 1203c27,0 53,-38 13,-71 -96,-79 -157,-83 -157,-293 0,-137 165,-267 302,-251 38,5 79,15 107,28 131,62 127,174 171,186 123,34 -18,-293 -300,-293 -327,0 -488,417 -239,637 22,20 67,57 103,57z"/>
   <path class="colour" d="M1246 450c0,-28 -21,-34 -43,-34 -9,0 -188,135 -140,182 32,33 78,-31 100,-53 19,-19 83,-69 83,-95z"/>
   <path class="colour" d="M746 272c0,120 -20,212 42,212 45,0 26,-96 26,-221 0,-42 -68,-30 -68,9z"/>
   <path class="colour" d="M323 450c0,25 52,65 70,82 30,30 53,70 91,70 32,0 0,8 26,-16l7 -9c-7,-28 -194,-242 -194,-127z"/>
   <path class="colour" d="M153 873c0,52 30,34 204,34 42,0 30,-68 -9,-68 -101,0 -195,-18 -195,34z"/>
   <path class="colour" d="M323 1313c48,32 39,24 116,-53 77,-77 85,-68 53,-116 -39,3 -50,28 -95,74 -46,46 -71,56 -74,95z"/>
  </g>
 </g>
</svg>
