<?xml version="1.0" encoding="UTF-8"?>
<!DOCTYPE svg PUBLIC "-//W3C//DTD SVG 1.1//EN" "http://www.w3.org/Graphics/SVG/1.1/DTD/svg11.dtd">
<!-- Creator: CorelDRAW X8 -->
<svg xmlns="http://www.w3.org/2000/svg" xml:space="preserve" width="20mm" height="20mm" version="1.1" style="shape-rendering:geometricPrecision; text-rendering:geometricPrecision; image-rendering:optimizeQuality; fill-rule:evenodd; clip-rule:evenodd"
viewBox="0 0 2000 2000"
 xmlns:xlink="http://www.w3.org/1999/xlink">
 <defs>
  <style type="text/css">
  .colour {fill:white}
  </style>
 </defs>
 <g id="Layer_x0020_2">
  <metadata id="CorelCorpID_0Corel-Layer"/>
  <g id="_2296963498000">
   <path class="colour" d="M1136 1473l-712 0c-192,0 -280,-272 -120,-391 78,-58 125,-23 197,-57 10,-44 6,-79 21,-122 104,-292 546,-250 546,113 82,55 95,-3 183,54 183,120 103,403 -115,403zm-703 -516c-147,3 -288,128 -288,279 0,94 14,156 82,231 34,37 119,83 189,83l753 0c73,0 143,-52 181,-91 167,-174 68,-479 -206,-502 -5,-220 -317,-470 -598,-234 -55,47 -113,152 -113,234z"/>
   <path class="colour" d="M899 534c0,22 4,23 8,42 91,22 26,-6 139,-81 112,-74 283,-56 364,52 93,122 58,200 81,224 20,20 99,-13 187,50 143,103 97,357 -87,388 -37,6 -83,3 -83,44 0,100 330,7 330,-237 0,-94 -17,-166 -82,-231 -43,-43 -114,-82 -197,-82 -22,-96 -26,-127 -86,-202 -31,-40 -57,-63 -111,-92 -237,-126 -463,86 -463,125z"/>
  </g>
 </g>
</svg>
