<?xml version="1.0" encoding="UTF-8"?>
<!DOCTYPE svg PUBLIC "-//W3C//DTD SVG 1.1//EN" "http://www.w3.org/Graphics/SVG/1.1/DTD/svg11.dtd">
<!-- Creator: CorelDRAW X8 -->
<svg xmlns="http://www.w3.org/2000/svg" xml:space="preserve" width="20mm" height="20mm" version="1.1" style="shape-rendering:geometricPrecision; text-rendering:geometricPrecision; image-rendering:optimizeQuality; fill-rule:evenodd; clip-rule:evenodd"
viewBox="0 0 2000 2000"
 xmlns:xlink="http://www.w3.org/1999/xlink">
 <defs>
  <style type="text/css">
  .colour {fill:#FEFEFE}
  </style>
 </defs>
 <g id="Layer_x0020_2">
  <metadata id="CorelCorpID_0Corel-Layer"/>
  <g id="_2296957310544">
   <path class="colour" d="M243 996c0,-119 26,-202 125,-264 153,-96 236,-6 254,-102 14,-73 -2,-79 30,-148 53,-112 167,-222 310,-222 82,0 141,-1 215,39 129,69 200,193 200,359 86,57 116,-12 253,77 231,151 100,515 -134,515l-999 0c-119,0 -254,-135 -254,-254zm734 -830l58 0c104,7 208,48 294,134 105,106 110,157 141,290 117,0 196,47 256,108 99,98 117,164 117,298 0,176 -177,347 -347,347l-999 0c-89,0 -194,-61 -240,-107 -91,-91 -107,-180 -107,-299 0,-164 167,-347 381,-347 0,-234 215,-410 446,-424z"/>
   <path class="colour" d="M319 1860c74,0 85,-31 85,-153 0,-45 -98,34 -109,44 -40,41 -21,109 24,109z"/>
   <path class="colour" d="M1233 1682c-47,25 -182,94 -101,161 30,24 81,17 96,-22 18,-48 9,-99 5,-139z"/>
   <path class="colour" d="M810 1682c-47,25 -182,94 -101,161 29,24 81,17 96,-22 17,-47 8,-102 5,-139z"/>
   <path class="colour" d="M522 1614c70,0 73,-119 59,-178 -33,18 -84,50 -108,79 -38,46 3,99 49,99z"/>
   <path class="colour" d="M1360 1606c79,0 60,-102 60,-170 -121,28 -176,170 -60,170z"/>
   <path class="colour" d="M869 1547c0,63 118,93 127,0 3,-29 0,-80 0,-111 -37,9 -127,68 -127,111z"/>
  </g>
 </g>
</svg>
