<?xml version="1.0" encoding="UTF-8"?>
<!DOCTYPE svg PUBLIC "-//W3C//DTD SVG 1.1//EN" "http://www.w3.org/Graphics/SVG/1.1/DTD/svg11.dtd">
<!-- Creator: CorelDRAW X8 -->
<svg xmlns="http://www.w3.org/2000/svg" xml:space="preserve" width="20mm" height="20mm" version="1.1" style="shape-rendering:geometricPrecision; text-rendering:geometricPrecision; image-rendering:optimizeQuality; fill-rule:evenodd; clip-rule:evenodd"
viewBox="0 0 2000 2000"
 xmlns:xlink="http://www.w3.org/1999/xlink">
 <defs>
  <style type="text/css">
  .colour {fill:white}
  </style>
 </defs>
 <g id="Layer_x0020_2">
  <metadata id="CorelCorpID_0Corel-Layer"/>
  <g id="_2296958576928">
   <path class="colour" d="M706 1182c0,-101 80,-153 166,-165 130,-17 48,-20 98,-130 6,-13 13,-24 23,-37l27 -31c111,-105 304,-79 370,61 22,47 11,44 22,96 15,71 66,12 161,67 145,86 86,308 -105,308l-584 0c-93,0 -178,-78 -178,-169zm-76 -8c0,92 15,122 82,188 38,37 102,66 172,66l593 0c133,0 254,-112 254,-221 0,-156 -92,-262 -237,-262 -78,-332 -446,-341 -587,-112 -15,26 -18,41 -27,74 -15,54 -5,31 -60,42 -99,20 -190,110 -190,225z"/>
   <path class="colour" d="M681 962c27,0 34,-20 34,-42 0,-47 -153,-58 -153,-238 0,-250 352,-307 455,-107 14,27 18,57 53,57 33,0 50,-31 23,-82 -190,-368 -784,-87 -567,288 16,28 38,56 61,73 22,17 59,51 94,51z"/>
   <path class="colour" d="M1036 437c0,88 166,-72 170,-119 -47,-31 -39,-24 -108,45 -17,16 -62,49 -62,74z"/>
   <path class="colour" d="M774 352c19,5 19,7 42,9 30,-45 17,-76 17,-178 0,-24 -9,-25 -28,-25l-6 0c-41,0 -25,113 -25,194z"/>
   <path class="colour" d="M554 462l15 -18c-2,-41 -104,-134 -142,-143 -18,17 -29,23 -15,48 7,10 97,110 142,113z"/>
   <path class="colour" d="M859 1792l8 50c65,15 102,24 102,-110 0,-44 -36,-10 -56,3 -20,14 -54,30 -54,57z"/>
   <path class="colour" d="M1011 1597c12,22 16,51 51,51 75,0 59,-72 59,-144 -47,12 -89,53 -110,93z"/>
   <path class="colour" d="M410 1030c0,110 155,-81 161,-102 -62,-41 -50,-2 -130,65 -19,16 -31,12 -31,37z"/>
   <path class="colour" d="M258 682c0,37 45,27 84,26 37,0 74,0 110,0 16,-67 -12,-51 -169,-51 -20,0 -25,6 -25,25z"/>
  </g>
 </g>
</svg>
