<?xml version="1.0" encoding="UTF-8"?>
<!DOCTYPE svg PUBLIC "-//W3C//DTD SVG 1.1//EN" "http://www.w3.org/Graphics/SVG/1.1/DTD/svg11.dtd">
<!-- Creator: CorelDRAW X8 -->
<svg xmlns="http://www.w3.org/2000/svg" xml:space="preserve" width="20mm" height="20mm" version="1.1" style="shape-rendering:geometricPrecision; text-rendering:geometricPrecision; image-rendering:optimizeQuality; fill-rule:evenodd; clip-rule:evenodd"
viewBox="0 0 2000 2000"
 xmlns:xlink="http://www.w3.org/1999/xlink">
 <defs>
  <style type="text/css">
   <![CDATA[
    .fil0 {fill:#FEFEFE}
   ]]>
  </style>
 </defs>
 <g id="Layer_x0020_2">
  <metadata id="CorelCorpID_0Corel-Layer"/>
  <g id="_2331444463904">
   <path class="fil0" d="M594 1030c-13,-70 47,-224 112,-294 145,-158 406,-170 572,-17 117,108 159,291 95,447 -18,46 -46,90 -78,125 -72,78 -174,116 -280,127 -45,4 -136,-18 -167,-32 -47,-21 -88,-45 -125,-78 -47,-44 -96,-128 -112,-193 -5,-19 -5,-21 -8,-43 -4,-28 -6,-29 -9,-42zm-76 -17c0,120 61,261 142,341 243,243 657,149 777,-141 81,-194 45,-400 -95,-541 -299,-299 -824,-83 -824,341z"/>
   <path class="fil0" d="M154 1005c0,74 73,50 254,50 54,0 54,-84 0,-84 -95,0 -254,-21 -254,34z"/>
   <path class="fil0" d="M958 1606c0,181 -24,254 51,254 54,0 34,-159 34,-254 0,-54 -85,-54 -85,0z"/>
   <path class="fil0" d="M1551 1013c0,65 139,42 245,42 29,0 46,-13 51,-30l0 -24c-5,-16 -22,-30 -51,-30 -106,0 -245,-22 -245,42z"/>
   <path class="fil0" d="M958 217c0,107 -22,246 43,246 64,0 42,-139 42,-246 0,-28 -14,-45 -30,-51l-24 0c-17,6 -31,23 -31,51z"/>
   <path class="fil0" d="M1382 590c0,32 10,42 42,42 17,0 186,-155 186,-195 0,-27 -20,-33 -42,-33 -22,0 -186,164 -186,186z"/>
   <path class="fil0" d="M391 1580c0,32 11,43 42,43 18,0 187,-155 187,-195 0,-28 -20,-34 -43,-34 -22,0 -186,164 -186,186z"/>
   <path class="fil0" d="M391 437c0,36 159,195 195,195 27,0 34,-20 34,-42 0,-17 -155,-186 -195,-186 -20,0 -34,14 -34,33z"/>
   <path class="fil0" d="M1382 1428c0,35 159,195 194,195 28,0 34,-20 34,-43 0,-17 -155,-186 -195,-186 -19,0 -33,14 -33,34z"/>
  </g>
 </g>
</svg>
