<svg xmlns="http://www.w3.org/2000/svg" xml:space="preserve" width="20mm" height="20mm" version="1.1" style="shape-rendering:geometricPrecision; text-rendering:geometricPrecision; image-rendering:optimizeQuality; fill-rule:evenodd; clip-rule:evenodd"
viewBox="0 0 2000 2000"
 xmlns:xlink="http://www.w3.org/1999/xlink">
 <defs>
  <!-- <style type="text/css">
   <![CDATA[
    .fil0 {fill:white}
   ]]>
  </style> -->
 </defs>
 <g id="Layer_x0020_2">
  <metadata id="CorelCorpID_0Corel-Layer"/>
  <g id="_2296961214800">
   <path class="fil0" d="M556 555c-206,0 -364,165 -364,330l0 59c0,164 166,331 330,331 152,0 178,16 178,-51 0,-92 -341,71 -415,-255 -40,-177 87,-329 330,-329 58,-86 2,-253 220,-365 104,-53 204,-53 313,-7 85,36 154,114 187,202 17,45 18,128 34,161 18,19 150,-6 251,79 131,109 126,334 -32,436 -78,50 -170,44 -296,44 -6,9 -25,28 -25,34 0,71 47,51 203,51 164,0 330,-167 330,-331 0,-119 -18,-204 -107,-290 -54,-52 -144,-99 -248,-99 -5,-203 -214,-406 -407,-406l-67 0c-210,0 -415,197 -415,406z"/>
   <path class="fil0" d="M768 1258l186 0 -127 228c-21,41 -39,73 -62,116 -11,19 -65,108 -65,121 0,69 108,-62 125,-78 46,-46 85,-85 131,-131l195 -195c23,-24 53,-37 57,-78l-186 0c24,-47 54,-92 79,-141l158 -291c53,-86 21,-85 -53,-11l-390 390c-22,22 -45,31 -48,70z"/>
   <path class="fil0" d="M1216 1546c0,58 68,69 100,40 29,-27 19,-99 19,-150 -30,6 -46,21 -72,38 -26,18 -47,32 -47,72z"/>
   <path class="fil0" d="M522 1529c0,98 80,75 100,57 29,-27 19,-99 19,-150 -31,7 -119,61 -119,93z"/>
   <path class="fil0" d="M1038 1774c0,41 17,62 38,68l30 0c24,-7 46,-29 51,-60 3,-27 0,-80 0,-109 -30,16 -119,63 -119,101z"/>
   <path class="fil0" d="M344 1774c0,41 17,62 38,68l29 0c25,-7 47,-29 51,-60 4,-27 1,-80 1,-109 -31,16 -119,63 -119,101z"/>
  </g>
 </g>
</svg>
