<?xml version="1.0" encoding="UTF-8"?>
<!DOCTYPE svg PUBLIC "-//W3C//DTD SVG 1.1//EN" "http://www.w3.org/Graphics/SVG/1.1/DTD/svg11.dtd">
<!-- Creator: CorelDRAW X8 -->
<svg xmlns="http://www.w3.org/2000/svg" xml:space="preserve" width="81mm" height="37mm" version="1.1" style="shape-rendering:geometricPrecision; text-rendering:geometricPrecision; image-rendering:optimizeQuality; fill-rule:evenodd; clip-rule:evenodd"
viewBox="0 0 8100 3700"
 xmlns:xlink="http://www.w3.org/1999/xlink">
 <defs>
  <style type="text/css">
   <![CDATA[
    .black {fill:#000000}
    .red {fill:#E93438}
   ]]>
  </style>
 </defs>
 <g id="Layer_x0020_1">
  <metadata id="CorelCorpID_0Corel-Layer"/>
  <g id="_2221279186320">
   <polygon class="red" points="3674,3109 4053,3677 5000,3677 2727,77 2727,3677 3674,3677 "/>
   <polygon class="red" points="6327,3677 5379,3677 3106,77 4053,77 "/>
   <polygon class="red" points="3674,3109 4053,3677 5000,3677 2727,77 2727,3677 3674,3677 "/>
   <polygon class="red" points="6327,3677 5379,3677 3106,77 4053,77 "/>
   <path class="black" d="M4432 77l2274 3600c994,0 1387,-806 1387,-1800 0,-994 -806,-1800 -1800,-1800l-1861 0z"/>
   <path class="black" d="M800 2588l-726 1089 947 0 379 -568 0 568 948 0 0 -1344 0 -1857 0 -399 -948 0c-732,0 -1326,594 -1326,1327 0,517 295,965 726,1184z"/>
 </g>
 </g>
</svg>
